M48
; DRILL file {KiCad 9.0.7-9.0.7~ubuntu22.04.1} date 2026-02-28T01:50:58+0200
; FORMAT={-:-/ absolute / metric / decimal}
; #@! TF.CreationDate,2026-02-28T01:50:58+02:00
; #@! TF.GenerationSoftware,Kicad,Pcbnew,9.0.7-9.0.7~ubuntu22.04.1
; #@! TF.FileFunction,Plated,1,6,PTH
FMAT,2
METRIC
; #@! TA.AperFunction,Plated,PTH,ComponentDrill
T1C0.200
; #@! TA.AperFunction,Plated,PTH,ViaDrill
T2C0.300
; #@! TA.AperFunction,Plated,PTH,ComponentDrill
T3C1.000
; #@! TA.AperFunction,Plated,PTH,ComponentDrill
T4C1.100
; #@! TA.AperFunction,Plated,PTH,ComponentDrill
T5C1.300
; #@! TA.AperFunction,Plated,PTH,ComponentDrill
T6C1.500
; #@! TA.AperFunction,Plated,PTH,ComponentDrill
T7C1.600
%
G90
G05
T1
X76.248Y-74.462
X76.248Y-75.112
X76.248Y-76.412
X76.248Y-77.062
X76.588Y-61.422
X76.588Y-62.072
X76.588Y-63.372
X76.588Y-64.022
X77.036Y-74.462
X77.036Y-75.112
X77.036Y-76.412
X77.036Y-77.062
X77.376Y-61.422
X77.376Y-62.072
X77.376Y-63.372
X77.376Y-64.022
X77.823Y-74.462
X77.823Y-75.112
X77.823Y-76.412
X77.823Y-77.062
X78.163Y-61.422
X78.163Y-62.072
X78.163Y-63.372
X78.163Y-64.022
X86.478Y-66.847
X87.053Y-65.897
X87.053Y-67.797
X87.628Y-66.847
T2
X66.75Y-72.45
X66.75Y-73.85
X66.75Y-75.25
X67.95Y-72.45
X67.95Y-73.85
X67.95Y-75.25
X68.323Y-81.0
X68.4Y-129.8
X69.723Y-81.0
X69.723Y-82.2
X70.4Y-56.8
X70.4Y-58.0
X70.4Y-69.0
X70.4Y-70.2
X71.5Y-79.0
X71.8Y-55.6
X71.8Y-69.0
X71.8Y-70.2
X71.8Y-74.4
X72.925Y-73.825
X73.0Y-61.2
X73.1Y-84.5
X73.1Y-85.7
X73.1Y-86.9
X73.2Y-54.4
X73.2Y-55.6
X73.2Y-69.0
X73.2Y-70.2
X73.5Y-92.25
X73.5Y-93.5
X74.4Y-53.0
X74.4Y-54.4
X74.5Y-84.5
X74.5Y-85.7
X74.5Y-86.9
X74.5Y-90.5
X74.75Y-92.25
X74.75Y-93.5
X74.8Y-55.9
X75.5Y-106.25
X75.5Y-113.4
X75.7Y-107.3
X76.0Y-112.25
X76.25Y-93.5
X76.25Y-111.25
X76.5Y-129.0
X76.55Y-117.2
X76.75Y-127.95
X77.0Y-126.75
X77.25Y-58.0
X78.0Y-66.0
X78.0Y-71.5
X78.0Y-109.0
X78.2Y-53.2
X78.2Y-54.4
X78.25Y-117.25
X78.25Y-120.75
X78.5Y-89.75
X78.75Y-107.0
X79.0Y-113.0
X79.2Y-81.8
X79.25Y-107.75
X79.4Y-53.2
X79.4Y-54.4
X79.4Y-68.2
X79.4Y-105.4
X79.5Y-106.5
X79.75Y-114.0
X79.75Y-117.25
X80.25Y-86.5
X80.5Y-126.7
X80.5Y-128.2
X80.5Y-129.7
X80.5Y-130.95
X80.8Y-65.8
X80.8Y-67.0
X80.8Y-68.2
X80.8Y-69.4
X80.8Y-70.6
X81.0Y-77.0
X81.25Y-91.0
X81.4Y-115.6
X81.5Y-86.5
X81.514Y-110.532
X81.75Y-105.25
X81.92Y-111.975
X82.2Y-65.8
X82.2Y-67.0
X82.2Y-68.2
X82.2Y-69.4
X82.2Y-70.6
X82.2Y-90.8
X82.2Y-95.3
X82.5Y-83.75
X82.5Y-127.75
X82.5Y-132.75
X82.75Y-126.7
X82.75Y-129.325
X82.764Y-112.07
X82.9Y-58.1
X82.9Y-60.5
X83.051Y-113.761
X83.5Y-83.75
X83.5Y-125.75
X83.6Y-70.6
X83.8Y-91.8
X84.0Y-36.25
X84.0Y-37.5
X84.0Y-38.75
X84.0Y-40.0
X84.0Y-41.25
X84.0Y-42.25
X84.0Y-74.4
X84.0Y-75.6
X84.0Y-102.4
X84.25Y-87.7
X84.4Y-132.7
X84.6Y-125.3
X84.7Y-116.0
X84.75Y-92.0
X85.0Y-117.0
X85.4Y-59.8
X85.4Y-74.4
X85.8Y-76.5
X86.0Y-92.75
X86.2Y-117.2
X86.25Y-124.5
X86.5Y-50.9
X86.8Y-59.8
X86.8Y-74.4
X86.862Y-115.5
X87.0Y-82.5
X87.0Y-93.0
X87.2Y-84.018
X87.3Y-117.1
X87.5Y-97.4
X88.2Y-59.8
X88.5Y-104.0
X88.5Y-106.5
X88.5Y-107.75
X88.5Y-108.95
X88.5Y-110.15
X88.5Y-111.25
X88.5Y-112.45
X88.6Y-115.2
X88.8Y-71.4
X89.4Y-78.6
X89.9Y-106.5
X89.9Y-107.75
X89.9Y-108.95
X89.9Y-110.15
X89.9Y-115.4
X90.0Y-116.5
X90.75Y-95.5
X90.75Y-120.25
X91.0Y-116.45
X91.6Y-115.9
X91.67Y-95.27
X91.75Y-86.5
X92.0Y-115.1
X92.805Y-83.684
X93.05Y-66.433
X93.05Y-67.8
X93.2Y-53.157
X93.2Y-54.557
X93.2Y-57.4
X93.25Y-36.25
X93.25Y-37.5
X93.25Y-38.75
X93.25Y-40.0
X93.25Y-41.25
X93.25Y-42.25
X93.4Y-130.6
X93.5Y-83.0
X94.423Y-112.277
X94.465Y-110.534
X94.6Y-64.4
X95.279Y-113.804
X95.4Y-88.2
X95.401Y-58.799
X95.6Y-101.0
X96.9Y-92.0
X97.2Y-90.6
X97.25Y-75.5
X97.5Y-95.9
X97.5Y-103.3
X98.5Y-90.8
X98.75Y-72.5
X98.75Y-86.75
X98.8Y-114.7
X99.0Y-106.75
X99.0Y-107.75
X99.0Y-112.482
X99.25Y-105.575
X99.25Y-110.0
X100.5Y-69.5
X101.275Y-103.176
X101.45Y-68.5
X101.5Y-62.75
X101.5Y-64.75
X101.5Y-66.75
X101.775Y-94.4
X101.9Y-96.4
X101.952Y-95.298
X102.16Y-69.15
X102.25Y-62.25
X102.25Y-63.25
X102.25Y-64.25
X102.25Y-65.25
X102.25Y-66.25
X102.25Y-67.25
X102.25Y-68.25
X102.25Y-75.0
X102.367Y-93.467
X102.525Y-76.425
X102.6Y-36.25
X102.6Y-37.5
X102.6Y-38.75
X102.6Y-40.0
X102.6Y-41.25
X102.6Y-42.25
X102.75Y-94.95
X102.75Y-105.8
X102.775Y-77.45
X102.8Y-103.4
X102.9Y-89.1
X102.95Y-100.214
X102.96Y-101.185
X103.0Y-92.75
X103.5Y-113.5
X103.7Y-103.4
X103.75Y-60.25
X103.75Y-92.0
X103.75Y-99.5
X103.802Y-101.425
X103.849Y-102.332
X103.988Y-62.052
X104.0Y-78.75
X104.3Y-59.6
X104.5Y-96.0
X104.75Y-90.75
X104.993Y-62.372
X105.0Y-78.75
X105.046Y-60.346
X105.5Y-103.0
X105.5Y-115.0
X105.647Y-57.379
X105.75Y-90.75
X105.855Y-61.395
X106.0Y-58.75
X106.0Y-78.75
X106.0Y-111.1
X106.0Y-112.133
X106.5Y-105.9
X106.648Y-103.203
X107.0Y-78.75
X107.5Y-56.25
X107.5Y-103.2
X107.75Y-95.0
X107.991Y-96.536
X108.0Y-78.75
X108.5Y-54.5
X108.5Y-93.1
X108.5Y-102.5
X109.0Y-78.75
X109.25Y-55.5
X109.75Y-61.5
X109.75Y-63.5
X109.75Y-65.5
X109.75Y-98.5
X110.0Y-78.75
X110.5Y-54.25
X110.7Y-109.0
X110.75Y-61.5
X110.75Y-63.5
X110.75Y-65.5
X110.75Y-98.5
X110.75Y-102.5
X111.0Y-78.75
X111.25Y-108.0
X111.6Y-109.4
X111.75Y-61.5
X111.75Y-63.5
X111.75Y-65.5
X111.75Y-92.25
X112.0Y-36.25
X112.0Y-37.5
X112.0Y-38.75
X112.0Y-40.0
X112.0Y-41.25
X112.0Y-42.25
X112.0Y-96.5
X112.0Y-97.5
X112.0Y-98.5
X112.23Y-56.5
X112.23Y-57.5
X112.25Y-107.5
X112.3Y-54.2
X112.375Y-55.3
X112.75Y-61.5
X112.75Y-63.5
X112.75Y-65.5
X112.86Y-89.5
X113.0Y-87.2
X113.0Y-88.0
X113.0Y-96.5
X113.0Y-97.5
X113.0Y-98.5
X113.25Y-92.75
X113.25Y-102.25
X113.4Y-83.1
X113.4Y-106.25
X113.425Y-81.15
X113.478Y-71.268
X113.512Y-107.093
X113.7Y-78.0
X113.75Y-61.5
X113.75Y-63.5
X113.75Y-65.5
X113.8Y-79.7
X114.0Y-96.5
X114.0Y-97.5
X114.06Y-72.0
X114.25Y-54.0
X114.75Y-61.5
X114.75Y-63.5
X114.75Y-65.5
X114.75Y-78.75
X114.75Y-102.634
X114.8Y-105.5
X115.0Y-123.5
X115.25Y-55.25
X115.75Y-78.75
X116.0Y-54.5
X116.0Y-101.25
X116.0Y-102.25
X116.5Y-56.5
X116.75Y-78.75
X117.458Y-107.9
X117.75Y-78.75
X117.75Y-102.0
X117.9Y-97.5
X117.941Y-96.25
X118.087Y-100.837
X118.5Y-58.75
X118.5Y-89.5
X118.75Y-78.75
X118.8Y-57.3
X119.0Y-104.1
X119.0Y-108.0
X119.25Y-117.5
X119.5Y-122.75
X119.75Y-78.75
X119.75Y-89.5
X119.763Y-58.837
X119.9Y-104.9
X120.0Y-59.8
X120.0Y-91.415
X120.0Y-110.0
X120.0Y-111.0
X120.245Y-61.45
X120.25Y-88.0
X120.286Y-60.6
X120.75Y-78.75
X120.75Y-117.5
X120.9Y-90.6
X121.1Y-91.9
X121.2Y-36.25
X121.2Y-37.5
X121.2Y-38.75
X121.2Y-40.0
X121.2Y-41.25
X121.2Y-42.25
X121.25Y-61.25
X121.25Y-88.0
X121.3Y-94.05
X121.3Y-94.9
X121.32Y-95.741
X121.5Y-89.0
X121.6Y-103.0
X121.75Y-78.75
X122.25Y-93.475
X122.407Y-68.011
X122.5Y-62.0
X122.5Y-63.0
X122.5Y-64.25
X122.5Y-65.25
X122.5Y-66.25
X122.51Y-67.167
X122.545Y-68.85
X122.75Y-76.75
X122.975Y-78.05
X123.0Y-91.25
X123.0Y-92.8
X123.25Y-62.5
X123.25Y-64.75
X123.25Y-66.75
X123.25Y-100.25
X123.25Y-101.05
X123.25Y-101.85
X123.25Y-102.65
X123.307Y-68.472
X124.4Y-91.1
X124.5Y-69.75
X124.75Y-105.5
X125.25Y-106.5
X125.4Y-91.1
X125.5Y-113.5
X125.75Y-118.5
X126.0Y-123.0
X126.4Y-91.1
X126.5Y-109.75
X126.695Y-112.3
X126.75Y-111.0
X127.25Y-106.0
X127.25Y-107.5
X127.541Y-113.0
X130.4Y-36.2
X130.4Y-37.45
X130.4Y-38.7
X130.4Y-39.95
X130.4Y-41.2
X130.4Y-42.2
X130.4Y-112.0
X130.4Y-116.8
X130.6Y-88.8
X131.041Y-64.959
X131.7Y-110.9
X131.75Y-88.5
X131.751Y-111.698
X131.8Y-112.5
X132.543Y-114.25
X132.8Y-115.8
X133.0Y-94.5
X133.75Y-115.5
X134.65Y-115.5
X134.65Y-117.25
X136.0Y-110.75
X136.0Y-111.95
X136.0Y-116.6
X136.25Y-99.25
X137.0Y-117.0
X137.25Y-99.25
X137.25Y-115.0
X137.33Y-103.925
X137.4Y-106.0
X137.4Y-107.25
X137.4Y-108.45
X137.4Y-109.65
X137.4Y-110.75
X137.4Y-111.95
X137.8Y-116.6
X138.25Y-99.25
X138.3Y-117.3
X138.75Y-84.75
X139.25Y-97.25
X139.4Y-84.0
X139.8Y-36.2
X139.8Y-37.45
X139.8Y-38.7
X139.8Y-39.95
X139.8Y-41.2
X139.8Y-42.2
X140.0Y-115.9
X140.075Y-123.325
X140.75Y-121.5
X141.108Y-115.79
X141.175Y-114.981
X142.0Y-93.75
X142.867Y-114.485
X143.075Y-111.878
X143.35Y-110.0
X144.5Y-114.75
X144.5Y-118.25
X144.5Y-120.25
X144.6Y-112.51
X144.75Y-92.75
X145.5Y-114.75
X146.5Y-106.0
X146.5Y-123.5
X146.75Y-107.5
X147.25Y-106.75
X147.25Y-112.5
X147.5Y-109.0
X148.25Y-111.0
X149.75Y-98.25
X150.25Y-132.0
X150.5Y-121.25
X153.0Y-93.8
X153.75Y-97.25
X153.75Y-98.5
X154.0Y-80.5
X155.25Y-96.0
X155.75Y-93.75
X156.6Y-90.6
X158.95Y-94.2
T3
X61.985Y-74.5
X64.525Y-74.5
X73.0Y-126.185
X73.0Y-128.725
X73.0Y-131.265
X76.735Y-47.16
X79.275Y-47.16
X86.235Y-47.16
X88.775Y-47.16
X89.0Y-126.675
X89.0Y-129.215
X89.0Y-131.755
X95.385Y-47.16
X95.96Y-60.92
X95.96Y-63.46
X95.96Y-66.0
X95.96Y-68.54
X97.925Y-47.16
X98.5Y-60.92
X98.5Y-63.46
X98.5Y-66.0
X98.5Y-68.54
X104.635Y-47.16
X107.175Y-47.16
X116.625Y-47.16
X119.165Y-47.16
X125.725Y-47.16
X126.96Y-61.38
X126.96Y-63.92
X126.96Y-66.46
X126.96Y-69.0
X128.265Y-47.16
X129.5Y-61.38
X129.5Y-63.92
X129.5Y-66.46
X129.5Y-69.0
X135.21Y-47.16
X137.75Y-47.16
X144.375Y-47.16
X146.915Y-47.16
X153.025Y-125.385
X153.025Y-129.975
X155.565Y-125.385
X155.565Y-129.975
X155.75Y-84.5
X155.75Y-87.04
X155.8Y-102.96
X155.8Y-105.5
X155.8Y-108.04
X155.8Y-110.58
X155.8Y-113.12
X155.8Y-115.66
X155.8Y-118.2
T4
X69.5Y-107.0
X69.5Y-109.5
X69.5Y-112.0
X150.5Y-84.5
X150.5Y-87.0
X150.5Y-89.5
T5
X64.75Y-51.45
X64.75Y-56.45
T6
X79.248Y-39.37
X88.75Y-39.46
X97.841Y-39.37
X107.188Y-39.37
X116.71Y-39.37
X125.75Y-39.541
X135.0Y-39.541
X144.25Y-39.37
T7
X76.708Y-36.83
X76.708Y-41.91
X81.788Y-36.83
X81.788Y-41.91
X86.21Y-36.92
X86.21Y-42.0
X91.29Y-36.92
X91.29Y-42.0
X95.301Y-36.83
X95.301Y-41.91
X100.381Y-36.83
X100.381Y-41.91
X104.648Y-36.83
X104.648Y-41.91
X109.728Y-36.83
X109.728Y-41.91
X114.17Y-36.83
X114.17Y-41.91
X119.25Y-36.83
X119.25Y-41.91
X123.21Y-37.0
X123.21Y-42.081
X128.29Y-37.0
X128.29Y-42.081
X132.46Y-37.0
X132.46Y-42.081
X137.54Y-37.0
X137.54Y-42.081
X141.71Y-36.83
X141.71Y-41.91
X146.79Y-36.83
X146.79Y-41.91
M30
