M48
; DRILL file {KiCad 9.0.8-9.0.8~ubuntu22.04.1} date 2026-04-02T18:16:58+0200
; FORMAT={-:-/ absolute / metric / decimal}
; #@! TF.CreationDate,2026-04-02T18:16:58+02:00
; #@! TF.GenerationSoftware,Kicad,Pcbnew,9.0.8-9.0.8~ubuntu22.04.1
; #@! TF.FileFunction,Plated,1,6,PTH
FMAT,2
METRIC
; #@! TA.AperFunction,Plated,PTH,ComponentDrill
T1C0.200
; #@! TA.AperFunction,Plated,PTH,ViaDrill
T2C0.300
; #@! TA.AperFunction,Plated,PTH,ComponentDrill
T3C1.000
; #@! TA.AperFunction,Plated,PTH,ComponentDrill
T4C1.100
; #@! TA.AperFunction,Plated,PTH,ComponentDrill
T5C1.300
; #@! TA.AperFunction,Plated,PTH,ComponentDrill
T6C1.500
; #@! TA.AperFunction,Plated,PTH,ComponentDrill
T7C1.600
%
G90
G05
T1
X76.248Y-74.462
X76.248Y-75.112
X76.248Y-76.412
X76.248Y-77.062
X76.588Y-61.422
X76.588Y-62.072
X76.588Y-63.372
X76.588Y-64.022
X77.036Y-74.462
X77.036Y-75.112
X77.036Y-76.412
X77.036Y-77.062
X77.376Y-61.422
X77.376Y-62.072
X77.376Y-63.372
X77.376Y-64.022
X77.823Y-74.462
X77.823Y-75.112
X77.823Y-76.412
X77.823Y-77.062
X78.163Y-61.422
X78.163Y-62.072
X78.163Y-63.372
X78.163Y-64.022
X86.478Y-66.847
X87.053Y-65.897
X87.053Y-67.797
X87.628Y-66.847
T2
X61.976Y-79.35
X66.75Y-72.45
X66.75Y-73.85
X66.75Y-75.25
X67.95Y-72.45
X67.95Y-73.85
X67.95Y-75.25
X68.323Y-81.0
X68.4Y-129.8
X69.723Y-81.0
X69.723Y-82.2
X70.4Y-56.8
X70.4Y-58.0
X70.4Y-69.0
X70.4Y-70.2
X70.409Y-71.933
X70.714Y-77.876
X71.042Y-84.5
X71.042Y-85.7
X71.042Y-86.9
X71.5Y-79.0
X71.73Y-65.888
X71.8Y-55.6
X71.8Y-74.4
X72.187Y-75.59
X72.238Y-62.535
X72.442Y-84.5
X72.442Y-85.7
X72.442Y-86.9
X72.695Y-80.416
X72.925Y-73.825
X73.0Y-61.2
X73.05Y-67.412
X73.2Y-54.4
X73.2Y-55.6
X73.2Y-69.0
X73.2Y-70.2
X73.5Y-92.25
X73.5Y-93.5
X73.609Y-84.5
X73.609Y-85.7
X73.609Y-86.9
X73.762Y-74.727
X73.812Y-74.066
X74.117Y-61.214
X74.117Y-61.874
X74.168Y-36.322
X74.168Y-37.592
X74.168Y-38.862
X74.168Y-40.132
X74.168Y-41.402
X74.168Y-42.672
X74.422Y-80.772
X74.5Y-90.5
X74.727Y-67.767
X74.75Y-92.25
X74.75Y-93.5
X74.778Y-75.54
X74.8Y-55.9
X74.93Y-62.484
X75.009Y-84.5
X75.009Y-85.7
X75.009Y-86.9
X75.387Y-75.489
X75.5Y-106.25
X75.5Y-113.4
X75.5Y-126.325
X75.54Y-74.727
X75.641Y-62.484
X75.7Y-107.3
X75.717Y-112.166
X75.844Y-61.773
X75.844Y-114.452
X75.997Y-72.644
X76.25Y-93.5
X76.25Y-111.25
X76.403Y-80.823
X76.5Y-129.0
X76.55Y-117.2
X76.75Y-127.95
X76.759Y-53.188
X76.759Y-67.818
X77.0Y-126.75
X77.064Y-69.596
X77.25Y-58.0
X77.318Y-86.106
X77.368Y-85.192
X78.0Y-66.0
X78.0Y-71.5
X78.0Y-109.0
X78.08Y-55.524
X78.2Y-53.2
X78.2Y-54.4
X78.232Y-85.75
X78.232Y-119.888
X78.25Y-117.25
X78.435Y-116.18
X78.5Y-89.75
X78.75Y-107.0
X79.0Y-113.0
X79.2Y-81.8
X79.25Y-107.75
X79.4Y-53.2
X79.4Y-54.4
X79.4Y-68.2
X79.4Y-105.4
X79.5Y-106.5
X79.654Y-63.449
X79.75Y-114.0
X79.75Y-117.25
X79.959Y-55.6
X80.25Y-86.5
X80.5Y-126.7
X80.5Y-128.2
X80.5Y-129.7
X80.5Y-130.95
X80.518Y-85.293
X80.518Y-89.662
X80.8Y-65.8
X80.8Y-67.0
X80.8Y-68.2
X80.8Y-69.4
X80.8Y-70.6
X80.874Y-64.211
X81.0Y-77.0
X81.128Y-118.11
X81.25Y-91.0
X81.331Y-132.69
X81.5Y-86.5
X81.514Y-110.532
X81.75Y-105.25
X81.839Y-78.08
X81.89Y-79.807
X81.92Y-111.975
X81.94Y-53.035
X82.2Y-65.8
X82.2Y-67.0
X82.2Y-68.2
X82.2Y-69.4
X82.2Y-70.6
X82.2Y-90.8
X82.2Y-95.3
X82.398Y-74.117
X82.398Y-75.082
X82.398Y-76.048
X82.398Y-81.636
X82.5Y-83.75
X82.5Y-127.75
X82.75Y-126.7
X82.75Y-129.325
X82.753Y-86.512
X82.764Y-112.07
X82.855Y-78.08
X82.9Y-58.1
X82.9Y-60.5
X82.906Y-79.807
X83.051Y-113.761
X83.5Y-83.75
X83.5Y-125.75
X83.6Y-70.6
X83.8Y-91.8
X83.871Y-77.876
X83.922Y-72.39
X84.0Y-74.4
X84.0Y-75.6
X84.0Y-102.4
X84.125Y-52.781
X84.176Y-68.631
X84.25Y-87.7
X84.4Y-132.7
X84.6Y-125.3
X84.7Y-116.0
X84.734Y-53.34
X84.75Y-92.0
X85.0Y-117.0
X85.192Y-52.781
X85.4Y-59.8
X85.4Y-74.4
X85.7Y-61.62
X85.7Y-71.374
X85.8Y-76.5
X85.954Y-83.617
X85.954Y-89.357
X86.0Y-92.75
X86.2Y-117.2
X86.25Y-124.5
X86.5Y-50.9
X86.614Y-36.322
X86.614Y-37.592
X86.614Y-38.862
X86.614Y-40.132
X86.614Y-41.402
X86.614Y-42.672
X86.8Y-59.8
X86.8Y-74.4
X86.817Y-72.847
X86.862Y-115.5
X87.0Y-82.5
X87.0Y-93.0
X87.2Y-84.018
X87.3Y-117.1
X87.376Y-61.62
X87.478Y-118.669
X87.5Y-97.4
X87.579Y-77.622
X87.732Y-63.551
X87.986Y-88.849
X88.138Y-117.297
X88.189Y-116.332
X88.2Y-59.8
X88.5Y-104.0
X88.5Y-106.5
X88.5Y-107.75
X88.5Y-108.95
X88.5Y-110.15
X88.5Y-111.25
X88.5Y-112.45
X88.6Y-115.2
X88.8Y-71.4
X88.951Y-92.253
X89.4Y-78.6
X89.408Y-120.142
X89.9Y-106.5
X89.9Y-107.75
X89.9Y-108.95
X89.9Y-110.15
X89.9Y-115.4
X89.923Y-53.4
X90.0Y-116.5
X90.272Y-80.112
X90.272Y-89.967
X90.427Y-83.192
X90.75Y-95.5
X90.983Y-52.375
X90.983Y-53.188
X91.0Y-116.45
X91.6Y-115.9
X91.67Y-95.27
X91.745Y-82.398
X91.75Y-86.5
X92.0Y-115.1
X92.456Y-85.293
X92.805Y-83.684
X93.05Y-66.433
X93.05Y-67.8
X93.2Y-57.4
X93.4Y-130.6
X93.5Y-83.0
X94.423Y-112.277
X94.465Y-110.534
X94.6Y-64.4
X95.4Y-88.2
X95.401Y-58.799
X95.6Y-101.0
X95.766Y-116.07
X96.9Y-92.0
X97.2Y-90.6
X97.25Y-75.5
X97.5Y-95.9
X97.5Y-103.3
X98.5Y-90.8
X98.75Y-72.5
X98.75Y-86.75
X98.8Y-114.7
X98.806Y-36.322
X98.806Y-37.592
X98.806Y-38.862
X98.806Y-40.132
X98.806Y-41.402
X98.806Y-42.672
X99.0Y-106.75
X99.0Y-107.75
X99.0Y-112.482
X99.25Y-105.575
X99.25Y-110.0
X100.5Y-69.5
X100.533Y-72.542
X101.275Y-103.176
X101.45Y-68.5
X101.5Y-62.75
X101.5Y-64.75
X101.5Y-66.75
X101.775Y-94.4
X101.9Y-96.4
X101.952Y-95.298
X102.16Y-69.15
X102.25Y-62.25
X102.25Y-63.25
X102.25Y-64.25
X102.25Y-65.25
X102.25Y-66.25
X102.25Y-67.25
X102.25Y-68.25
X102.25Y-75.0
X102.367Y-93.467
X102.525Y-76.425
X102.75Y-94.95
X102.75Y-105.8
X102.775Y-77.45
X102.8Y-103.4
X102.9Y-89.1
X102.95Y-100.214
X102.96Y-101.185
X103.0Y-92.75
X103.5Y-113.5
X103.7Y-103.4
X103.75Y-60.25
X103.75Y-92.0
X103.75Y-99.5
X103.802Y-101.425
X103.849Y-102.332
X103.988Y-62.052
X104.0Y-78.75
X104.3Y-59.6
X104.5Y-96.0
X104.75Y-90.75
X104.993Y-62.372
X105.0Y-78.75
X105.046Y-60.346
X105.5Y-103.0
X105.613Y-109.423
X105.647Y-57.379
X105.75Y-90.75
X105.855Y-61.395
X106.0Y-58.75
X106.0Y-78.75
X106.0Y-111.1
X106.0Y-112.133
X106.5Y-105.9
X106.648Y-103.203
X106.985Y-114.859
X107.0Y-78.75
X107.5Y-56.25
X107.5Y-103.2
X107.75Y-95.0
X107.991Y-96.536
X108.0Y-78.75
X108.5Y-54.5
X108.5Y-93.1
X108.5Y-102.5
X109.0Y-78.75
X109.25Y-55.5
X109.75Y-61.5
X109.75Y-63.5
X109.75Y-65.5
X109.75Y-98.5
X110.0Y-78.75
X110.5Y-54.25
X110.7Y-109.0
X110.75Y-61.5
X110.75Y-63.5
X110.75Y-65.5
X110.75Y-98.5
X110.75Y-102.5
X111.0Y-78.75
X111.25Y-108.0
X111.506Y-36.322
X111.506Y-37.592
X111.506Y-38.862
X111.506Y-40.132
X111.506Y-41.402
X111.506Y-42.672
X111.6Y-109.4
X111.75Y-61.5
X111.75Y-63.5
X111.75Y-65.5
X111.75Y-92.25
X112.0Y-96.5
X112.0Y-97.5
X112.0Y-98.5
X112.23Y-56.5
X112.23Y-57.5
X112.25Y-107.5
X112.3Y-54.2
X112.375Y-55.3
X112.75Y-61.5
X112.75Y-63.5
X112.75Y-65.5
X112.86Y-89.5
X113.0Y-87.2
X113.0Y-88.0
X113.0Y-96.5
X113.0Y-97.5
X113.0Y-98.5
X113.25Y-92.75
X113.25Y-102.25
X113.4Y-83.1
X113.4Y-106.25
X113.425Y-81.15
X113.478Y-71.268
X113.512Y-107.093
X113.7Y-78.0
X113.75Y-61.5
X113.75Y-63.5
X113.75Y-65.5
X113.8Y-79.7
X114.0Y-96.5
X114.0Y-97.5
X114.06Y-72.0
X114.25Y-54.0
X114.75Y-61.5
X114.75Y-63.5
X114.75Y-65.5
X114.75Y-78.75
X114.75Y-102.634
X114.8Y-105.5
X115.0Y-123.5
X115.25Y-55.25
X115.75Y-78.75
X116.0Y-54.5
X116.0Y-101.25
X116.0Y-102.25
X116.5Y-56.5
X116.75Y-78.75
X117.458Y-107.9
X117.75Y-78.75
X117.75Y-102.0
X117.9Y-97.5
X117.941Y-96.25
X118.087Y-100.837
X118.5Y-58.75
X118.5Y-89.5
X118.75Y-78.75
X118.8Y-57.3
X119.0Y-104.1
X119.0Y-108.0
X119.25Y-117.5
X119.5Y-122.75
X119.75Y-78.75
X119.75Y-89.5
X119.763Y-58.837
X119.9Y-104.9
X120.0Y-59.8
X120.0Y-91.415
X120.0Y-110.0
X120.0Y-111.0
X120.245Y-61.45
X120.25Y-88.0
X120.286Y-60.6
X120.75Y-78.75
X120.75Y-117.5
X120.9Y-90.6
X121.1Y-91.9
X121.25Y-61.25
X121.25Y-88.0
X121.3Y-94.05
X121.3Y-94.9
X121.32Y-95.741
X121.5Y-89.0
X121.6Y-103.0
X121.75Y-78.75
X122.25Y-93.475
X122.407Y-68.011
X122.5Y-62.0
X122.5Y-63.0
X122.5Y-64.25
X122.5Y-65.25
X122.5Y-66.25
X122.51Y-67.167
X122.545Y-68.85
X122.75Y-76.75
X122.975Y-78.05
X123.0Y-91.25
X123.0Y-92.8
X123.25Y-62.5
X123.25Y-64.75
X123.25Y-66.75
X123.25Y-100.25
X123.25Y-101.05
X123.25Y-101.85
X123.25Y-102.65
X123.307Y-68.472
X123.698Y-36.322
X123.698Y-37.592
X123.698Y-38.862
X123.698Y-40.132
X123.698Y-41.402
X123.698Y-42.672
X124.4Y-91.1
X124.5Y-69.75
X124.75Y-105.5
X125.25Y-106.5
X125.4Y-91.1
X125.5Y-113.5
X125.75Y-118.5
X126.0Y-123.0
X126.4Y-91.1
X126.5Y-109.75
X126.695Y-112.3
X126.75Y-111.0
X127.25Y-106.0
X127.25Y-107.5
X127.541Y-113.0
X130.4Y-112.0
X130.4Y-116.8
X130.6Y-88.8
X131.041Y-64.959
X131.7Y-110.9
X131.75Y-88.5
X131.751Y-111.698
X131.8Y-112.5
X132.543Y-114.25
X132.74Y-84.938
X132.8Y-115.8
X133.0Y-94.5
X133.75Y-115.5
X134.65Y-115.5
X134.65Y-117.25
X135.128Y-83.922
X135.23Y-90.221
X136.0Y-110.75
X136.0Y-111.95
X136.0Y-116.6
X136.144Y-36.03
X136.144Y-37.3
X136.144Y-38.57
X136.144Y-39.84
X136.144Y-41.11
X136.144Y-42.38
X136.25Y-99.25
X136.703Y-92.761
X137.0Y-117.0
X137.25Y-99.25
X137.25Y-115.0
X137.33Y-103.925
X137.4Y-106.0
X137.4Y-107.25
X137.4Y-108.45
X137.4Y-109.65
X137.4Y-110.75
X137.4Y-111.95
X137.516Y-89.154
X137.8Y-116.6
X138.25Y-99.25
X138.3Y-117.3
X138.75Y-84.75
X139.25Y-97.25
X139.4Y-84.0
X140.0Y-115.9
X140.075Y-123.325
X140.75Y-121.5
X141.108Y-115.79
X141.175Y-114.981
X142.0Y-93.75
X142.867Y-114.485
X143.075Y-111.878
X143.35Y-110.0
X144.5Y-114.75
X144.5Y-118.25
X144.5Y-120.25
X144.6Y-112.51
X144.75Y-92.75
X145.5Y-114.75
X146.5Y-106.0
X146.5Y-123.5
X146.75Y-107.5
X147.25Y-106.75
X147.25Y-112.5
X147.5Y-109.0
X148.25Y-111.0
X148.336Y-36.068
X148.336Y-37.338
X148.336Y-38.608
X148.336Y-39.878
X148.336Y-41.148
X148.336Y-42.418
X149.75Y-98.25
X150.25Y-132.0
X150.5Y-121.25
X153.0Y-93.8
X153.111Y-95.555
X154.0Y-80.5
X155.651Y-97.688
X155.651Y-98.806
X155.75Y-93.75
X156.6Y-90.6
X158.95Y-94.2
T3
X61.985Y-74.5
X64.525Y-74.5
X65.537Y-47.16
X68.077Y-47.16
X73.0Y-126.185
X73.0Y-128.725
X73.0Y-131.265
X78.237Y-47.16
X80.777Y-47.16
X89.0Y-126.675
X89.0Y-129.215
X89.0Y-131.755
X90.175Y-47.16
X92.715Y-47.16
X95.96Y-60.92
X95.96Y-63.46
X95.96Y-66.0
X95.96Y-68.54
X98.5Y-60.92
X98.5Y-63.46
X98.5Y-66.0
X98.5Y-68.54
X102.875Y-47.16
X105.415Y-47.16
X117.597Y-47.16
X120.137Y-47.16
X126.96Y-61.38
X126.96Y-63.92
X126.96Y-66.46
X126.96Y-69.0
X129.5Y-61.38
X129.5Y-63.92
X129.5Y-66.46
X129.5Y-69.0
X129.789Y-47.16
X132.329Y-47.16
X141.981Y-47.16
X144.521Y-47.16
X153.025Y-125.385
X153.025Y-129.975
X154.427Y-47.16
X155.565Y-125.385
X155.565Y-129.975
X155.75Y-84.5
X155.75Y-87.04
X155.8Y-102.96
X155.8Y-105.5
X155.8Y-108.04
X155.8Y-110.58
X155.8Y-113.12
X155.8Y-115.66
X155.8Y-118.2
X156.967Y-47.16
T4
X69.5Y-107.0
X69.5Y-109.5
X69.5Y-112.0
X150.5Y-84.5
X150.5Y-87.0
X150.5Y-89.5
T5
X64.75Y-51.45
X64.75Y-56.45
T6
X68.199Y-39.37
X80.518Y-39.37
X92.71Y-39.37
X105.156Y-39.37
X117.602Y-39.37
X129.794Y-39.37
X142.049Y-39.37
X154.495Y-39.37
T7
X65.659Y-36.83
X65.659Y-41.91
X70.739Y-36.83
X70.739Y-41.91
X77.978Y-36.83
X77.978Y-41.91
X83.058Y-36.83
X83.058Y-41.91
X90.17Y-36.83
X90.17Y-41.91
X95.25Y-36.83
X95.25Y-41.91
X102.616Y-36.83
X102.616Y-41.91
X107.696Y-36.83
X107.696Y-41.91
X115.062Y-36.83
X115.062Y-41.91
X120.142Y-36.83
X120.142Y-41.91
X127.254Y-36.83
X127.254Y-41.91
X132.334Y-36.83
X132.334Y-41.91
X139.51Y-36.83
X139.51Y-41.91
X144.589Y-36.83
X144.589Y-41.91
X151.956Y-36.83
X151.956Y-41.91
X157.035Y-36.83
X157.035Y-41.91
M30
